HIERARCHY
ROOT hip
{
  OFFSET 0 0 0
  CHANNELS 6 Xposition Yposition Zposition Zrotation Yrotation Xrotation
  JOINT abdomen
  {
    OFFSET 0 20.6881 -0.73152
    CHANNELS 3 Zrotation Xrotation Yrotation
    JOINT chest
    {
      OFFSET 0 11.7043 -0.48768
      CHANNELS 3 Zrotation Xrotation Yrotation
      JOINT neck
      {
        OFFSET 0 22.1894 -2.19456
        CHANNELS 3 Zrotation Xrotation Yrotation
        JOINT head
        {
          OFFSET -0.24384 7.07133 1.2192
          CHANNELS 3 Zrotation Xrotation Yrotation
          JOINT leftEye
          {
            OFFSET 4.14528 8.04674 8.04672
            CHANNELS 3 Zrotation Xrotation Yrotation
            End Site
            {
              OFFSET 1 0 0
            }
          }
          JOINT rightEye
          {
            OFFSET -3.6576 8.04674 8.04672
            CHANNELS 3 Zrotation Xrotation Yrotation
            End Site
            {
              OFFSET 1 0 0
            }
          }
        }
      }
      JOINT rCollar
      {
        OFFSET -2.68224 19.2634 -4.8768
        CHANNELS 3 Zrotation Xrotation Yrotation
        JOINT rShldr
        {
          OFFSET -8.77824 -1.95073 1.46304
          CHANNELS 3 Zrotation Xrotation Yrotation
          JOINT rForeArm
          {
            OFFSET -28.1742 -1.7115 0.48768
            CHANNELS 3 Zrotation Xrotation Yrotation
            JOINT rHand
            {
              OFFSET -22.5879 0.773209 7.07136
              CHANNELS 3 Zrotation Xrotation Yrotation
              JOINT rThumb1
              {
                OFFSET -1.2192 -0.487915 3.41376
                CHANNELS 3 Zrotation Xrotation Yrotation
                JOINT rThumb2
                {
                  OFFSET -3.37035 -0.52449 3.41376
                  CHANNELS 3 Zrotation Xrotation Yrotation
                  End Site
                  {
                    OFFSET -1.78271 -1.18214 1.43049
                  }
                }
              }
              JOINT rIndex1
              {
                OFFSET -7.75947 0.938293 5.60832
                CHANNELS 3 Zrotation Xrotation Yrotation
                JOINT rIndex2
                {
                  OFFSET -2.54057 -0.884171 1.56538
                  CHANNELS 3 Zrotation Xrotation Yrotation
                  End Site
                  {
                    OFFSET -1.62519 -0.234802 1.16502
                  }
                }
              }
              JOINT rMid1
              {
                OFFSET -8.24714 1.18213 3.41376
                CHANNELS 3 Zrotation Xrotation Yrotation
                JOINT rMid2
                {
                  OFFSET -3.10165 -0.590103 1.0647
                  CHANNELS 3 Zrotation Xrotation Yrotation
                  End Site
                  {
                    OFFSET -2.48547 -0.328903 0.83742
                  }
                }
              }
              JOINT rRing1
              {
                OFFSET -8.82822 0.546677 1.51678
                CHANNELS 3 Zrotation Xrotation Yrotation
                JOINT rRing2
                {
                  OFFSET -2.60934 -0.819778 -0.0198488
                  CHANNELS 3 Zrotation Xrotation Yrotation
                  End Site
                  {
                    OFFSET -2.33842 -0.294052 0.168128
                  }
                }
              }
              JOINT rPinky1
              {
                OFFSET -8.27202 -0.0477905 -0.4584
                CHANNELS 3 Zrotation Xrotation Yrotation
                JOINT rPinky2
                {
                  OFFSET -1.82734 -0.647385 -0.700984
                  CHANNELS 3 Zrotation Xrotation Yrotation
                  End Site
                  {
                    OFFSET -1.69225 -0.51767 -0.607171
                  }
                }
              }
            }
          }
        }
      }
      JOINT lCollar
      {
        OFFSET 2.68224 19.2634 -4.8768
        CHANNELS 3 Zrotation Xrotation Yrotation
        JOINT lShldr
        {
          OFFSET 8.77824 -1.95073 1.46304
          CHANNELS 3 Zrotation Xrotation Yrotation
          JOINT lForeArm
          {
            OFFSET 28.1742 -1.7115 0.48768
            CHANNELS 3 Zrotation Xrotation Yrotation
            JOINT lHand
            {
              OFFSET 22.5879 0.773209 7.07136
              CHANNELS 3 Zrotation Xrotation Yrotation
              JOINT lThumb1
              {
                OFFSET 1.2192 -0.487915 3.41376
                CHANNELS 3 Zrotation Xrotation Yrotation
                JOINT lThumb2
                {
                  OFFSET 3.37035 -0.52449 3.41376
                  CHANNELS 3 Zrotation Xrotation Yrotation
                  End Site
                  {
                    OFFSET 1.78271 -1.18214 1.43049
                  }
                }
              }
              JOINT lIndex1
              {
                OFFSET 7.75947 0.938293 5.60832
                CHANNELS 3 Zrotation Xrotation Yrotation
                JOINT lIndex2
                {
                  OFFSET 2.54057 -0.884171 1.56538
                  CHANNELS 3 Zrotation Xrotation Yrotation
                  End Site
                  {
                    OFFSET 1.62519 -0.234802 1.16502
                  }
                }
              }
              JOINT lMid1
              {
                OFFSET 8.24714 1.18213 3.41376
                CHANNELS 3 Zrotation Xrotation Yrotation
                JOINT lMid2
                {
                  OFFSET 3.10165 -0.590103 1.0647
                  CHANNELS 3 Zrotation Xrotation Yrotation
                  End Site
                  {
                    OFFSET 2.48547 -0.328903 0.83742
                  }
                }
              }
              JOINT lRing1
              {
                OFFSET 8.82822 0.546677 1.51678
                CHANNELS 3 Zrotation Xrotation Yrotation
                JOINT lRing2
                {
                  OFFSET 2.60934 -0.819778 -0.0198488
                  CHANNELS 3 Zrotation Xrotation Yrotation
                  End Site
                  {
                    OFFSET 2.33842 -0.294052 0.168128
                  }
                }
              }
              JOINT lPinky1
              {
                OFFSET 8.27202 -0.0477905 -0.4584
                CHANNELS 3 Zrotation Xrotation Yrotation
                JOINT lPinky2
                {
                  OFFSET 1.82734 -0.647385 -0.700984
                  CHANNELS 3 Zrotation Xrotation Yrotation
                  End Site
                  {
                    OFFSET 1.69225 -0.51767 -0.607171
                  }
                }
              }
            }
          }
        }
      }
    }
  }
  JOINT rButtock
  {
    OFFSET -8.77824 4.35084 1.2192
    CHANNELS 3 Zrotation Xrotation Yrotation
    JOINT rThigh
    {
      OFFSET 0 -1.70687 -2.19456
      CHANNELS 3 Zrotation Xrotation Yrotation
      JOINT rShin
      {
        OFFSET 0 -36.8199 0.73152
        CHANNELS 3 Zrotation Xrotation Yrotation
        JOINT rFoot
        {
          OFFSET 0.73152 -45.1104 -5.12064
          CHANNELS 3 Zrotation Xrotation Yrotation
          End Site
          {
            OFFSET -1.1221 -3.69964 12.103
          }
        }
      }
    }
  }
  JOINT lButtock
  {
    OFFSET 8.77824 4.35084 1.2192
    CHANNELS 3 Zrotation Xrotation Yrotation
    JOINT lThigh
    {
      OFFSET 0 -1.70687 -2.19456
      CHANNELS 3 Zrotation Xrotation Yrotation
      JOINT lShin
      {
        OFFSET 0 -36.8199 0.73152
        CHANNELS 3 Zrotation Xrotation Yrotation
        JOINT lFoot
        {
          OFFSET -0.73152 -45.1104 -5.12064
          CHANNELS 3 Zrotation Xrotation Yrotation
          End Site
          {
            OFFSET 1.1221 -3.69964 12.103
          }
        }
      }
    }
  }
}
MOTION
Frames:	4
Frame Time:	0.03333
13.93906301818788 55.913108587265015 43.042694218456745 -6.654304968695753 -22.02411914852995 17.5953066699305 1.8875227771330236 6.124114522581275 3.1421548896873768 5.289400092321778 -9.030352757345707 1.2609805599444683 -2.6941309789579178 10.890774197625767 2.921030076629153 3.410234905411911 -27.59857120944669 5.518348460187429 0.3488517517758426 -0.3740419696825256 -0.3137026911724578 -0.13647454341455367 -0.0846368760695948 -0.45837895775887455 0.40078237372653713 -0.1391465080817774 0.20588932906257015 103.380739239505 42.45239874843227 -47.202764580324875 -27.759919060662607 -37.794991791143545 80.64830556838264 -6.315636015116194 -55.81070514222479 -12.410875486094417 0.1945045776549225 0.552470256382795 0.1308498826330482 0.38754872212707875 -0.68986852952174 0.0843180983344256 0.12665038351054816 0.23385511173236423 -0.1197787329578393 7.746213160359841 4.693181780613964 -0.09684439846796454 0.29687459916142733 -0.491065575083911 -0.04324974500029922 2.396591503569472 1.0213188269222413 -0.332973963193943 -0.0489473233872799 0.07632608331442312 0.02189107645500821 10.404276898518683 0.3548227778534618 -0.38481272443638614 0.06646996025953604 -0.25299415556038624 -0.18563201518073047 2.3148578314231028 -0.7937519715379316 0.0751174599964482 0.029012242355834085 0.37765828804378293 -0.56223459877071 -36.38679461448909 29.706606643933572 -46.747501736292264 16.10292741175564 -8.512101055013588 -30.963125809689554 2.706576010512504 27.228494484742473 -5.175084496843744 0.032203861688934105 0.2894691799972526 -0.9199827253013472 -0.3585684962829791 -0.3515404984313004 -0.151463713713264 -0.8633127524794572 -0.22465850213878008 0.6755758784358123 -8.10519253521008 5.777722759484547 -0.24618344310167858 -0.6116365566246189 -0.46011628040729075 0.3045583752147066 -2.7732856143623725 0.992423925081914 0.22801407269238685 -0.4645160961715426 -0.460917493613445 0.10249341847881466 -9.70696068803728 0.30183875930585147 -0.08235863445542531 -0.340122156366758 0.10775925420505648 -0.30075596087899287 -1.7333905938884004 -0.823943862268621 0.021980615966158846 -0.0708314629314123 0.7201732784562933 -0.5177195879070925 -14.043428155284511 5.023505096801413 2.362991028277829 0.238618261543949 40.688239432993434 1.8669737261282173 -2.4402989512854414 2.2478993525553523 -23.52359668079975 -0.007440210440259515 -0.371809671762695 0.028949863518804828 64.12277898475269 -54.549961504467156 69.31789599954524 8.224266638105496 83.72417197807115 -9.05280785801577 7.916055205582317 -10.112847240786225 28.222918801477554
14.384529972448945 56.744152307510376 45.253864116966724 -5.438980381371412 -21.08170842987181 17.112752097521806 0.3213596000363066 6.738612554942159 2.6190593025732496 5.602032791672071 -8.997142670053814 1.0665248608307938 -2.7314882717364792 11.02937581135825 3.033875900775165 3.6466849554203518 -28.30328280725192 5.552199731487658 0.24714735354829662 -0.4790557012846485 -0.31452060632556683 -0.09207500543659158 -0.008923161902945643 -0.3233229592575679 0.5117303657786375 -0.058701127006749 0.2760812088112342 103.22891779463396 41.98869379058552 -47.1344046320168 -27.857759812975747 -37.15375655638982 79.58307609561662 -6.643489364145037 -56.14106773199997 -12.540734457689284 0.31804359655511827 0.5218505183336279 0.1310327502759047 0.510211982709632 -0.867281839439175 -0.012275183959835182 0.22580413296991747 0.2710781486050528 -0.12155452878118973 7.750613509732622 4.790807381968249 -0.071258403115391 0.1999917808793815 -0.4643657252880965 0.033964583071342896 2.4310758480283967 0.9785072012046014 -0.30414266749026136 -0.006281105993767195 0.12348512443877616 0.0337905466496398 10.350623201267295 0.37337293130898175 -0.23220089861232532 0.008100124107959105 -0.2762561790478629 -0.04860881547675436 2.340017260117668 -0.7498372702693347 0.12579981151547 0.04024555566297787 0.45170436883589116 -0.49670805839028204 -36.81890311723536 29.8022634432596 -47.46452816517103 16.056809974479712 -8.527535574990525 -31.185376750187185 2.5699777766409495 27.480890465141954 -4.926284611042274 -0.04973450268912386 0.2719359776761241 -0.9865730142841518 -0.26735601567251316 -0.3993172447887165 -0.033083728792249266 -0.8262122321250057 -0.2576992754444523 0.6709733981522816 -8.20278057052393 5.761526246528332 -0.3251937907599167 -0.5715164523267872 -0.5187466776035331 0.1877918090416958 -2.7355981246261227 0.8970025538388393 0.32773120603657646 -0.4492586275044977 -0.462157813278037 0.05068803444985467 -9.685863941238402 0.24808335626885283 -0.08655311765775361 -0.45274623948858256 0.10010560035323407 -0.3447026786593243 -1.723308060734698 -0.702302035132102 0.1373736737857624 -0.07707868478359389 0.7447157489697358 -0.49909600991799485 -14.856291529728667 1.6775661771414168 2.108039063024882 1.259366927753053 47.08613568515232 0.9859140077509514 -1.0796015781619006 4.805169562245493 -18.654392387538092 0.034028536053532434 -0.4345200931318151 0.11026134459710256 58.65230972376022 -55.34832182598244 65.3544396770244 7.240367642881404 82.91993769386967 -7.867058843571231 8.291647308041318 -10.422213829052783 29.339569353410013
14.757744269445539 57.76393413543701 47.60122541338205 -3.6771766274225812 -19.901185363915975 15.449083647794074 -2.3796554091921904 7.729898399753619 1.9216054210913873 5.851297984110748 -8.822647558459266 0.6686713575977229 -2.784671326265372 11.312391529806899 2.70886433732787 4.134553841890138 -29.26953600875529 5.019798011629389 0.016256543915717927 -0.5272024517960089 -0.24257480870323753 0.004968002125832243 0.05814630753881769 -0.17270428135089463 0.5496885017607487 -0.05442537522546813 0.2959509227978889 101.82392739179483 41.64668572827547 -45.95629603793257 -27.886417579185828 -35.88359750286133 77.3321462735039 -6.7624063726895445 -55.36487820453055 -12.249585691486443 0.552759845731433 0.4600142544565637 0.16953628753541197 0.6630865040124738 -1.0513323856825698 -0.11379063140729509 0.30545577135819635 0.3293703980765266 -0.11787439083987514 7.687870538243239 4.895443745618729 -0.015296848976478244 0.026374775480004237 -0.4333708604431076 0.0885382214265679 2.5141390591853914 0.8265517138710965 -0.26712539006631947 0.09632983976353929 0.17960846868365357 0.03467921829368193 10.289040508163167 0.4208850078360598 -0.018353865558161413 -0.03410265427819765 -0.299075094012935 0.14316475372722084 2.2944483724094584 -0.6455873992763425 0.20759175371319583 0.07815972230230708 0.526020668987038 -0.3076531712802364 -38.05098728123562 30.010703741255465 -46.84135195058282 16.12728898897778 -8.53633968883067 -31.395582652083498 1.9858465518865307 27.159007555221347 -4.331130955071337 -0.11998940160505189 0.23768343276215637 -0.9700410750066648 -0.12764182815725783 -0.5379348667770675 0.10650047168536429 -0.7400005172040469 -0.21660208056933847 0.6245214950504364 -8.273793193550905 5.638952098570106 -0.3762595400069584 -0.45594314154611876 -0.5248254392431387 -0.010326472292692363 -2.707156576591955 0.7890088854070338 0.44552913077425915 -0.3459037780970416 -0.36021510548148106 0.03324960100346008 -9.690387234016242 0.2533231785793104 -0.11576519640766346 -0.6123120516613626 0.025987055522900232 -0.3160994472408976 -1.7002623621448403 -0.5441608510097985 0.3189488100635565 -0.11654666609824813 0.7662202794064036 -0.39485142164943887 -15.842593043993311 -4.128844657517654 1.8263659036349642 2.5562834607984857 57.42944631513947 -0.095100885960613 0.546067967892113 7.812185957552995 -11.59974100328392 0.1069381907616269 -0.4362783332345645 0.11637062864456162 49.10631781143992 -55.72853455141495 57.52982277518198 5.866516072468359 80.49651827445744 -6.452422506076747 8.63868836599602 -10.395466808263013 30.338597217645685
14.992862986400723 58.14462900161743 49.89810511469841 -1.1466835340432404 -19.30649786835589 13.272023175328686 -5.3966741896523525 9.028965375170548 1.3004699389611318 6.048775401601919 -8.411659708173966 0.30138540549969184 -2.3911339689792204 11.329642880103059 2.161681020888635 4.552727904955938 -30.3265897450848 4.806334536385803 -0.3901025725464288 -0.3940738473011152 -0.04887449916329728 0.06052433394789283 0.05398181313581398 0.19541185889641025 0.5506187948700456 -0.2304100550284597 0.17719346320352516 99.64740565050023 41.628753066609605 -44.08959850757891 -27.946786206164987 -34.513690366693965 74.82110235722958 -6.748313131110869 -53.88175726777564 -11.968608784505044 0.9148015999290694 0.44249289824477694 0.38816418620432036 0.8269062433777025 -1.0461267143179624 -0.009276357388229349 0.23429715303771098 0.4114208202456551 -0.11957726905775039 7.620278132443146 5.040970744282782 0.17640137470321526 -0.1974253372987492 -0.32106398091129196 0.11135809688699207 2.6840882530004717 0.6716120742005307 -0.18181646073499244 0.29409006977503066 0.21945664607515422 -0.0695779631361563 10.13106762417088 0.42998025848957805 0.24204389489740127 0.05884704225897869 -0.21416196880792496 0.23546282086910889 2.2834679895450165 -0.6384234379714983 0.23712271691998063 0.08041475194546911 0.6196198738256002 -0.10467232886532807 -38.697922308851716 29.650435168199387 -46.43247633629835 16.314480568465736 -8.557320322413657 -30.9044647300029 1.6115932732265579 26.311691852830002 -3.750818873280012 -0.13253752632742313 0.20209686652592057 -0.8940942272737361 0.023807157960608352 -0.7834752582405599 0.2126292316694918 -0.5735139091330457 0.008963529388157476 0.5263695422432376 -8.073635353697327 5.432407604955744 -0.4103150232912006 -0.2952727597185007 -0.31704425450218077 -0.13641368536183182 -2.6949117549574146 0.7260168254563566 0.6206993638795796 -0.23175989784360992 -0.20956247673215606 0.2548049294228065 -9.80540505831832 0.37503512187652777 -0.07601040050872158 -0.7549973714655736 -0.21442930668090748 -0.1393255070627993 -1.6370160910909914 -0.3607797700267707 0.6942801913953336 -0.27976694964210236 0.7220429360198785 -0.1988155742795377 -16.60689291966503 -11.098740651247962 1.1511494105433708 3.7264218644515497 70.54765106903854 -0.9748796237033842 1.734290791476667 10.826918759075317 -2.917124062197552 0.058014132706207366 -0.13014840086094673 -0.012188686017299317 38.337691301836074 -55.771878931887855 49.32107261932346 4.96346346512877 77.86856201016002 -5.56780031043879 8.619406741969074 -10.403099544660503 30.7775051737107
